<svg viewBox="0 0 1496 400" xmlns="http://www.w3.org/2000/svg"><g><g><g><g><g><line x1="53.1875" y1="377" x2="48.1875" y2="377" style="visibility: inherit;" fill="rgb(0, 0, 0)" stroke="rgb(204, 204, 204)" stroke-width="1px"></line><line x1="53.1875" y1="348" x2="48.1875" y2="348" style="visibility: inherit;" fill="rgb(0, 0, 0)" stroke="rgb(204, 204, 204)" stroke-width="1px"></line><line x1="53.1875" y1="319" x2="48.1875" y2="319" style="visibility: inherit;" fill="rgb(0, 0, 0)" stroke="rgb(204, 204, 204)" stroke-width="1px"></line><line x1="53.1875" y1="290" x2="48.1875" y2="290" style="visibility: inherit;" fill="rgb(0, 0, 0)" stroke="rgb(204, 204, 204)" stroke-width="1px"></line><line x1="53.1875" y1="261" x2="48.1875" y2="261" style="visibility: inherit;" fill="rgb(0, 0, 0)" stroke="rgb(204, 204, 204)" stroke-width="1px"></line><line x1="53.1875" y1="231.99999999999994" x2="48.1875" y2="231.99999999999994" style="visibility: inherit;" fill="rgb(0, 0, 0)" stroke="rgb(204, 204, 204)" stroke-width="1px"></line><line x1="53.1875" y1="203" x2="48.1875" y2="203" style="visibility: inherit;" fill="rgb(0, 0, 0)" stroke="rgb(204, 204, 204)" stroke-width="1px"></line><line x1="53.1875" y1="173.99999999999997" x2="48.1875" y2="173.99999999999997" style="visibility: inherit;" fill="rgb(0, 0, 0)" stroke="rgb(204, 204, 204)" stroke-width="1px"></line><line x1="53.1875" y1="145" x2="48.1875" y2="145" style="visibility: inherit;" fill="rgb(0, 0, 0)" stroke="rgb(204, 204, 204)" stroke-width="1px"></line><line x1="53.1875" y1="115.99999999999994" x2="48.1875" y2="115.99999999999994" style="visibility: inherit;" fill="rgb(0, 0, 0)" stroke="rgb(204, 204, 204)" stroke-width="1px"></line><line x1="53.1875" y1="86.99999999999994" x2="48.1875" y2="86.99999999999994" style="visibility: inherit;" fill="rgb(0, 0, 0)" stroke="rgb(204, 204, 204)" stroke-width="1px"></line><line x1="53.1875" y1="57.99999999999994" x2="48.1875" y2="57.99999999999994" style="visibility: inherit;" fill="rgb(0, 0, 0)" stroke="rgb(204, 204, 204)" stroke-width="1px"></line><line x1="53.1875" y1="28.999999999999886" x2="48.1875" y2="28.999999999999886" style="visibility: inherit;" fill="rgb(0, 0, 0)" stroke="rgb(204, 204, 204)" stroke-width="1px"></line><line x1="53.1875" y1="0" x2="48.1875" y2="0" style="visibility: inherit;" fill="rgb(0, 0, 0)" stroke="rgb(204, 204, 204)" stroke-width="1px"></line></g><g transform="translate(43.1875, 0)"><text x="0" y="377" dx="0em" dy="0.3em" style="text-anchor: end; visibility: hidden; font-family: &quot;Helvetica Neue&quot;, sans-serif; font-size: 12px; font-weight: 200;" fill="rgb(50, 49, 63)" stroke="none" stroke-width="1px">0.3</text><text x="0" y="348" dx="0em" dy="0.3em" style="text-anchor: end; visibility: inherit; font-family: &quot;Helvetica Neue&quot;, sans-serif; font-size: 12px; font-weight: 200;" fill="rgb(50, 49, 63)" stroke="none" stroke-width="1px">0.35</text><text x="0" y="319" dx="0em" dy="0.3em" style="text-anchor: end; visibility: inherit; font-family: &quot;Helvetica Neue&quot;, sans-serif; font-size: 12px; font-weight: 200;" fill="rgb(50, 49, 63)" stroke="none" stroke-width="1px">0.4</text><text x="0" y="290" dx="0em" dy="0.3em" style="text-anchor: end; visibility: inherit; font-family: &quot;Helvetica Neue&quot;, sans-serif; font-size: 12px; font-weight: 200;" fill="rgb(50, 49, 63)" stroke="none" stroke-width="1px">0.45</text><text x="0" y="261" dx="0em" dy="0.3em" style="text-anchor: end; visibility: inherit; font-family: &quot;Helvetica Neue&quot;, sans-serif; font-size: 12px; font-weight: 200;" fill="rgb(50, 49, 63)" stroke="none" stroke-width="1px">0.5</text><text x="0" y="231.99999999999994" dx="0em" dy="0.3em" style="text-anchor: end; visibility: inherit; font-family: &quot;Helvetica Neue&quot;, sans-serif; font-size: 12px; font-weight: 200;" fill="rgb(50, 49, 63)" stroke="none" stroke-width="1px">0.55</text><text x="0" y="203" dx="0em" dy="0.3em" style="text-anchor: end; visibility: inherit; font-family: &quot;Helvetica Neue&quot;, sans-serif; font-size: 12px; font-weight: 200;" fill="rgb(50, 49, 63)" stroke="none" stroke-width="1px">0.6</text><text x="0" y="173.99999999999997" dx="0em" dy="0.3em" style="text-anchor: end; visibility: inherit; font-family: &quot;Helvetica Neue&quot;, sans-serif; font-size: 12px; font-weight: 200;" fill="rgb(50, 49, 63)" stroke="none" stroke-width="1px">0.65</text><text x="0" y="145" dx="0em" dy="0.3em" style="text-anchor: end; visibility: inherit; font-family: &quot;Helvetica Neue&quot;, sans-serif; font-size: 12px; font-weight: 200;" fill="rgb(50, 49, 63)" stroke="none" stroke-width="1px">0.7</text><text x="0" y="115.99999999999994" dx="0em" dy="0.3em" style="text-anchor: end; visibility: inherit; font-family: &quot;Helvetica Neue&quot;, sans-serif; font-size: 12px; font-weight: 200;" fill="rgb(50, 49, 63)" stroke="none" stroke-width="1px">0.75</text><text x="0" y="86.99999999999994" dx="0em" dy="0.3em" style="text-anchor: end; visibility: inherit; font-family: &quot;Helvetica Neue&quot;, sans-serif; font-size: 12px; font-weight: 200;" fill="rgb(50, 49, 63)" stroke="none" stroke-width="1px">0.8</text><text x="0" y="57.99999999999994" dx="0em" dy="0.3em" style="text-anchor: end; visibility: inherit; font-family: &quot;Helvetica Neue&quot;, sans-serif; font-size: 12px; font-weight: 200;" fill="rgb(50, 49, 63)" stroke="none" stroke-width="1px">0.85</text><text x="0" y="28.999999999999886" dx="0em" dy="0.3em" style="text-anchor: end; visibility: inherit; font-family: &quot;Helvetica Neue&quot;, sans-serif; font-size: 12px; font-weight: 200;" fill="rgb(50, 49, 63)" stroke="none" stroke-width="1px">0.9</text><text x="0" y="0" dx="0em" dy="0.3em" style="text-anchor: end; visibility: hidden; font-family: &quot;Helvetica Neue&quot;, sans-serif; font-size: 12px; font-weight: 200;" fill="rgb(50, 49, 63)" stroke="none" stroke-width="1px">0.95</text></g><line x1="53.1875" y1="0" x2="53.1875" y2="377" fill="rgb(0, 0, 0)" stroke="rgb(204, 204, 204)" stroke-width="1px"></line></g></g><g transform="translate(53, 0)" clip-path="url(#clip_0)"><clipPath id="clip_0"><rect width="1442" height="377"></rect></clipPath><g><g><g><line x1="0" y1="0" x2="0" y2="377" fill="rgb(0, 0, 0)" stroke="rgb(60, 60, 60)" stroke-width="1px" opacity="0.25"></line><line x1="103.05803571428571" y1="0" x2="103.05803571428571" y2="377" fill="rgb(0, 0, 0)" stroke="rgb(60, 60, 60)" stroke-width="1px" opacity="0.25"></line><line x1="206.11607142857142" y1="0" x2="206.11607142857142" y2="377" fill="rgb(0, 0, 0)" stroke="rgb(60, 60, 60)" stroke-width="1px" opacity="0.25"></line><line x1="309.1741071428571" y1="0" x2="309.1741071428571" y2="377" fill="rgb(0, 0, 0)" stroke="rgb(60, 60, 60)" stroke-width="1px" opacity="0.25"></line><line x1="412.23214285714283" y1="0" x2="412.23214285714283" y2="377" fill="rgb(0, 0, 0)" stroke="rgb(60, 60, 60)" stroke-width="1px" opacity="0.25"></line><line x1="515.2901785714286" y1="0" x2="515.2901785714286" y2="377" fill="rgb(0, 0, 0)" stroke="rgb(60, 60, 60)" stroke-width="1px" opacity="0.25"></line><line x1="618.3482142857142" y1="0" x2="618.3482142857142" y2="377" fill="rgb(0, 0, 0)" stroke="rgb(60, 60, 60)" stroke-width="1px" opacity="0.25"></line><line x1="721.40625" y1="0" x2="721.40625" y2="377" fill="rgb(0, 0, 0)" stroke="rgb(60, 60, 60)" stroke-width="1px" opacity="0.25"></line><line x1="824.4642857142857" y1="0" x2="824.4642857142857" y2="377" fill="rgb(0, 0, 0)" stroke="rgb(60, 60, 60)" stroke-width="1px" opacity="0.25"></line><line x1="927.5223214285714" y1="0" x2="927.5223214285714" y2="377" fill="rgb(0, 0, 0)" stroke="rgb(60, 60, 60)" stroke-width="1px" opacity="0.25"></line><line x1="1030.580357142857" y1="0" x2="1030.580357142857" y2="377" fill="rgb(0, 0, 0)" stroke="rgb(60, 60, 60)" stroke-width="1px" opacity="0.25"></line><line x1="1133.638392857143" y1="0" x2="1133.638392857143" y2="377" fill="rgb(0, 0, 0)" stroke="rgb(60, 60, 60)" stroke-width="1px" opacity="0.25"></line><line x1="1236.6964285714284" y1="0" x2="1236.6964285714284" y2="377" fill="rgb(0, 0, 0)" stroke="rgb(60, 60, 60)" stroke-width="1px" opacity="0.25"></line><line x1="1339.7544642857142" y1="0" x2="1339.7544642857142" y2="377" fill="rgb(0, 0, 0)" stroke="rgb(60, 60, 60)" stroke-width="1px" opacity="0.25"></line><line x1="1442.8125" y1="0" x2="1442.8125" y2="377" fill="rgb(0, 0, 0)" stroke="rgb(60, 60, 60)" stroke-width="1px" opacity="0.25"></line></g><g><line x1="0" y1="377" x2="1442.8125" y2="377" fill="rgb(0, 0, 0)" stroke="rgb(60, 60, 60)" stroke-width="1px" opacity="0.25"></line><line x1="0" y1="348" x2="1442.8125" y2="348" fill="rgb(0, 0, 0)" stroke="rgb(60, 60, 60)" stroke-width="1px" opacity="0.25"></line><line x1="0" y1="319" x2="1442.8125" y2="319" fill="rgb(0, 0, 0)" stroke="rgb(60, 60, 60)" stroke-width="1px" opacity="0.25"></line><line x1="0" y1="290" x2="1442.8125" y2="290" fill="rgb(0, 0, 0)" stroke="rgb(60, 60, 60)" stroke-width="1px" opacity="0.25"></line><line x1="0" y1="261" x2="1442.8125" y2="261" fill="rgb(0, 0, 0)" stroke="rgb(60, 60, 60)" stroke-width="1px" opacity="0.25"></line><line x1="0" y1="231.99999999999994" x2="1442.8125" y2="231.99999999999994" fill="rgb(0, 0, 0)" stroke="rgb(60, 60, 60)" stroke-width="1px" opacity="0.25"></line><line x1="0" y1="203" x2="1442.8125" y2="203" fill="rgb(0, 0, 0)" stroke="rgb(60, 60, 60)" stroke-width="1px" opacity="0.25"></line><line x1="0" y1="173.99999999999997" x2="1442.8125" y2="173.99999999999997" fill="rgb(0, 0, 0)" stroke="rgb(60, 60, 60)" stroke-width="1px" opacity="0.25"></line><line x1="0" y1="145" x2="1442.8125" y2="145" fill="rgb(0, 0, 0)" stroke="rgb(60, 60, 60)" stroke-width="1px" opacity="0.25"></line><line x1="0" y1="115.99999999999994" x2="1442.8125" y2="115.99999999999994" fill="rgb(0, 0, 0)" stroke="rgb(60, 60, 60)" stroke-width="1px" opacity="0.25"></line><line x1="0" y1="86.99999999999994" x2="1442.8125" y2="86.99999999999994" fill="rgb(0, 0, 0)" stroke="rgb(60, 60, 60)" stroke-width="1px" opacity="0.25"></line><line x1="0" y1="57.99999999999994" x2="1442.8125" y2="57.99999999999994" fill="rgb(0, 0, 0)" stroke="rgb(60, 60, 60)" stroke-width="1px" opacity="0.25"></line><line x1="0" y1="28.999999999999886" x2="1442.8125" y2="28.999999999999886" fill="rgb(0, 0, 0)" stroke="rgb(60, 60, 60)" stroke-width="1px" opacity="0.25"></line><line x1="0" y1="0" x2="1442.8125" y2="0" fill="rgb(0, 0, 0)" stroke="rgb(60, 60, 60)" stroke-width="1px" opacity="0.25"></line></g></g></g><g><g><line x1="0" y1="551" x2="1442.8125" y2="551" fill="rgb(0, 0, 0)" stroke="rgb(153, 153, 153)" stroke-width="1.5px"></line></g></g><g><g><line x1="103.05803571428571" y1="0" x2="103.05803571428571" y2="377" fill="rgb(0, 0, 0)" stroke="rgb(153, 153, 153)" stroke-width="1.5px"></line></g></g><g><g><g><g><g><path stroke="rgb(255, 112, 67)" stroke-width="2px" d="M144.28125,-56.23176668068959L149.4341517857143,29.828986247083833L154.58705357142856,-9.891025670088482L159.73995535714286,61.96093872944482L164.89285714285714,104.95452322733564L170.04575892857142,48.93084983653665L175.19866071428572,83.99399879176661L180.3515625,108.59751963824647L185.50446428571428,119.7485372858473L190.65736607142858,148.68851533369985L195.81026785714283,158.75704615743064L200.96316964285714,100.0200039117031L206.11607142857142,111.77500454725043L211.26897321428572,56.19418296830571L216.421875,84.324759776311L221.5747767857143,118.17547099435245L226.72767857142856,146.24187676780548L231.88058035714286,145.32082038567808L237.03348214285714,196.2890561423581L242.18638392857142,177.14738852913814L247.33928571428572,202.73851044831025L252.49218749999997,181.7555535650161L257.6450892857143,190.52969972741113L262.79799107142856,173.37142536250983L267.9508928571429,209.9514831678126L273.1037946428571,209.99572491629834L278.25669642857144,207.76451321571372L283.4095982142857,126.87723574731359L288.5625,158.48204824035395L293.7154017857143,176.3193138111657L298.8683035714286,133.56935098595076L304.02120535714283,168.7463158769355L309.1741071428571,187.74694592110046L314.32700892857144,156.804515670857L319.4799107142857,184.76628876010562L324.6328125,203.6534509708222L329.7857142857143,186.48911142467276L334.93861607142856,216.39876227636202L340.09151785714283,74.36686184506038L345.24441964285717,126.63277179418378L350.39732142857144,173.40501174047043L355.5502232142857,189.5448680444738L360.703125,164.6830202413892L365.8560267857143,171.4200954242721L371.00892857142856,179.38746947076365L376.1618303571429,187.67636300342028L381.31473214285717,234.93882599605155L386.46763392857144,237.01574520548078L391.62053571428567,246.19559443164016L396.77343750000006,234.72723281483582L401.9263392857143,236.94603836596465L407.07924107142856,222.5401333574077L412.23214285714283,233.03560411951688L417.38504464285717,234.0175732375488L422.53794642857144,225.79323284633776L427.6908482142857,250.843008379983L432.84375,236.23675910284933L437.9966517857143,243.16771740705258L443.1495535714286,230.98863875264215L448.3024553571429,232.50700676080157L453.4553571428571,225.47866027138576L458.6082589285714,245.30367555965145L463.7611607142857,192.13300184457992L468.9140625,233.39699614077497L474.0669642857143,226.0439887763839L479.21986607142856,215.56212362776884L484.37276785714283,229.92221832949326L489.52566964285717,245.96492448257445L494.67857142857144,255.17872132543943L499.8314732142857,238.90559972336425L504.98437499999994,226.95923736697753L510.13727678571433,251.30647942427584L515.2901785714286,236.59447878005378L520.4430803571429,261.0214373672144L525.5959821428571,266.88778541112754L530.7488839285714,240.42417553439626L535.9017857142858,224.3250060759478L541.0546875,251.01020735993944L546.2075892857142,257.6463712840972L551.3604910714286,262.8527019017754L556.5133928571429,270.68607974015583L561.6662946428571,276.02403945900744L566.8191964285714,262.4398601721391L571.9720982142857,268.003533069531L577.125,262.33648587718005L582.2779017857143,270.8147341814899L587.4308035714286,285.67761857552904L592.5837053571429,235.2286659672473L597.7366071428572,139.88824614254315L602.8895089285714,205.99817819814496L608.0424107142857,229.18571884286766L613.1953125,239.46399211199497L618.3482142857142,223.73812379426604L623.5011160714286,243.15498594037797L628.6540178571429,263.1733338093287L633.8069196428571,274.8308710131363L638.9598214285714,287.6048251553366L644.1127232142858,299.8661181309217L649.265625,276.3778283225532L654.4185267857143,263.23500921887376L659.5714285714286,244.84223291016946L664.7243303571428,251.67000525437194L669.8772321428571,256.88034282471176L675.0301339285714,199.03368693796057L680.1830357142857,254.8206107986406L685.3359375,262.01811120345803L690.4888392857143,268.29069226643213L695.6417410714286,277.44178625143036L700.7946428571429,271.74691484091557L705.9475446428571,257.69105452130964L711.1004464285714,241.97598220009044L716.2533482142858,272.2412170475628L721.40625,247.88986801540293L726.5591517857142,268.5959748234477L731.7120535714286,260.3977981928662L736.8649553571428,275.08759034417125L742.0178571428571,290.07754085506235L747.1707589285714,297.47632254389066L752.3236607142858,296.4788244558998L757.4765625,286.9006984706895L762.6294642857143,286.64176152206517L767.7823660714286,294.6017798784796L772.9352678571429,278.71589657088657L778.0881696428571,264.14265954745133L783.2410714285713,264.8048154607553L788.3939732142857,248.31978026003478L793.5468750000001,252.83053688389555L798.6997767857143,258.3913962613493L803.8526785714286,278.1495999676555L809.0055803571429,280.1722365488153L814.1584821428571,297.9835543793166L819.3113839285714,281.9506902791097L824.4642857142857,284.9039875088355L829.6171874999999,282.72857338298684L834.7700892857143,288.53068622415856L839.9229910714287,288.58417282382004L845.0758928571429,288.2010292642078L850.2287946428571,273.6464303751446L855.3816964285714,281.9813471090589L860.5345982142857,276.91715022634236L865.6875,288.653358487551L870.8404017857142,296.8095734764722L875.9933035714286,295.92682990131306L881.1462053571429,302.4350026649089L886.2991071428572,302.9970031858594L891.4520089285714,283.45121456868117L896.6049107142858,268.7441624265114L901.7578125,283.70693322784894L906.9107142857142,281.60339534739967L912.0636160714286,287.60001209056566L917.2165178571428,285.00881153748145L922.3694196428571,298.68414129260606L927.5223214285714,299.56841390993253L932.6752232142858,292.41293040314946L937.828125,290.64671654343385L942.9810267857143,298.221378581761L948.1339285714286,284.00936180176654L953.2868303571429,289.1727964748282L958.4397321428571,284.12064332183235L963.5926339285713,273.06815530309694L968.7455357142857,281.09080630212793L973.8984375000001,267.3437646726952L979.0513392857143,299.50066745878377L984.2042410714286,279.70414212108324L989.3571428571429,277.48623987889687L994.5100446428571,283.52225068125966L999.6629464285714,270.60359851666595L1004.8158482142857,127.30840468495069L1009.9687499999999,207.34017567687619L1015.1216517857143,239.4971529296242L1020.2745535714287,250.88639056987785L1025.427455357143,229.86118090335856L1030.580357142857,255.6450938951035L1035.7332589285713,262.6245612008011L1040.8861607142858,255.675334006705L1046.0390625,269.8531840504158L1051.1919642857142,291.2852957642644L1056.3448660714284,284.4277621028763L1061.497767857143,282.1411466072763L1066.650669642857,301.740783564494L1071.8035714285716,303.37774106994027L1076.9564732142858,292.2073071785852L1082.109375,299.53693199086695L1087.2622767857142,292.0132519717723L1092.4151785714284,286.92136074994266L1097.568080357143,296.933125554885L1102.720982142857,319.97362860403393L1107.8738839285716,316.4478947661038L1113.0267857142858,310.798112651212L1118.1796875,295.75632926255645L1123.3325892857142,265.69645083206996L1128.4854910714287,247.3836539999134L1133.638392857143,272.0910056361846L1138.791294642857,286.366973300534L1143.9441964285713,290.47639836058465L1149.0970982142856,289.8572758030024L1154.25,301.9519668573813L1159.4029017857142,306.5591452213929L1164.5558035714287,294.15151548938786L1169.708705357143,288.06500587795273L1174.861607142857,283.046299326027L1180.0145089285713,306.9541961834458L1185.1674107142858,294.10880692515536L1190.3203125,285.40537042447187L1195.4732142857144,285.222906750609L1200.6261160714287,107.80265541205972L1205.779017857143,177.55843803483347L1210.931919642857,242.16330307244118L1216.0848214285713,265.90881634663856L1221.2377232142858,290.2446341092069L1226.390625,294.4460362180876L1231.5435267857142,300.5916009178643L1236.6964285714284,298.9243195194533L1241.849330357143,304.9929938398916L1247.002232142857,320.26711941260805L1252.1551339285716,303.5845665007753L1257.3080357142858,296.2562409800245L1262.4609375,311.71755112182814L1267.6138392857142,316.1773258505566L1272.7667410714284,317.16125944008246L1277.919642857143,316.6082008048881L1283.072544642857,298.3632632353895L1288.2254464285716,296.44048945063315L1293.3783482142858,295.9973082539675L1298.53125,292.76375436766375L1303.6841517857142,308.24553709020273L1308.8370535714287,170.96595457071092L1313.989955357143,220.87722679897558L1319.142857142857,267.20659950330503L1324.2957589285713,282.9372532543817L1329.4486607142856,304.83894072635644L1334.6015625,301.7729560533981L1339.7544642857142,299.53313341139676L1344.9073660714287,299.4969247245724L1350.060267857143,293.8929451026878L1355.213169642857,295.4452931236244L1360.3660714285713,303.6577118486772L1365.5189732142858,311.3833081394797L1370.671875,299.2488094610194L1375.8247767857144,297.14223687900414L1380.9776785714287,306.37941127451245L1386.130580357143,306.702806409788L1391.283482142857,303.3213625529956" style="fill: none;" fill="none"></path></g></g></g></g><g opacity="0.2"><g><g><g><path stroke="rgb(255, 112, 67)" stroke-width="2px" d="M128.82254464285714,-155.59815788269043L133.97544642857144,43.47427940368652L139.12834821428572,-57.57613563537603L144.28125,68.7273416519165L149.4341517857143,157.6191744804382L154.58705357142856,-69.11078596115112L159.73995535714286,169.3478701114654L164.89285714285714,169.3045184612274L170.04575892857142,-34.99490404129028L175.19866071428572,136.54750680923456L180.3515625,145.48544859886167L185.50446428571428,136.47034502029413L190.65736607142858,192.09113454818723L195.81026785714283,173.85830855369565L200.96316964285714,11.919809341430607L206.11607142857142,129.4068608283996L211.26897321428572,-27.175220489501953L216.421875,126.52006959915155L221.5747767857143,168.95113682746884L226.72767857142856,188.34128594398496L231.88058035714286,143.93923974037165L237.03348214285714,272.7412793636322L242.18638392857142,148.4349164962768L247.33928571428572,241.1251697540283L252.49218749999997,150.28112983703608L257.6450892857143,203.69091606140134L262.79799107142856,147.63401722908017L267.9508928571429,264.82156550884247L273.1037946428571,210.06208753585813L278.25669642857144,204.4176957607269L283.4095982142857,5.546321630477848L288.5625,205.88926649093625L293.7154017857143,203.0752120018005L298.8683035714286,69.44440698623657L304.02120535714283,221.51176309585568L309.1741071428571,216.24789094924924L314.32700892857144,110.39087033271784L319.4799107142857,226.70894837379453L324.6328125,231.984194278717L329.7857142857143,160.74260210990903L334.93861607142856,261.2632385492325L340.09151785714283,-138.68098878860485L345.24441964285717,205.03163671493527L350.39732142857144,243.56337165832517L355.5502232142857,213.75465250015256L360.703125,127.39024853706357L365.8560267857143,181.52570819854733L371.00892857142856,191.33853054046628L376.1618303571429,200.1097033023834L381.31473214285717,305.8325204849243L386.46763392857144,240.13112401962277L391.62053571428567,259.965368270874L396.77343750000006,217.52469038963315L401.9263392857143,240.27424669265744L407.07924107142856,200.93127584457395L412.23214285714283,248.77881026268003L417.38504464285717,235.49052691459653L422.53794642857144,213.45672225952146L427.6908482142857,288.41767168045044L432.84375,214.32738518714902L437.9966517857143,253.56415486335752L443.1495535714286,212.72002077102658L448.3024553571429,234.78455877304074L453.4553571428571,214.93614053726193L458.6082589285714,275.04119849205017L463.7611607142857,112.3769912719726L468.9140625,295.29298758506775L474.0669642857143,215.01447772979733L479.21986607142856,199.83932590484616L484.37276785714283,251.46236038208005L489.52566964285717,270.02898371219635L494.67857142857144,268.99941658973694L499.8314732142857,214.49591732025144L504.98437499999994,209.03969383239743L510.13727678571433,287.8273425102234L515.2901785714286,214.52647781372067L520.4430803571429,297.6618752479553L525.5959821428571,275.6873074769974L530.7488839285714,200.7287607192993L535.9017857142858,200.17625188827512L541.0546875,291.0380092859268L546.2075892857142,267.60061717033386L551.3604910714286,270.66219782829285L556.5133928571429,282.43614649772644L561.6662946428571,284.03097903728485L566.8191964285714,242.06359124183652L571.9720982142857,276.3490424156189L577.125,253.83591508865356L582.2779017857143,283.5321066379547L587.4308035714286,307.97194516658783L592.5837053571429,159.5552370548248L597.7366071428572,-3.1223835945129395L602.8895089285714,305.16307628154755L608.0424107142857,263.9670298099518L613.1953125,254.881402015686L618.3482142857142,200.1493213176727L623.5011160714286,272.2802791595459L628.6540178571429,293.2008556127548L633.8069196428571,292.31717681884766L638.9598214285714,306.7657563686371L644.1127232142858,318.2580575942993L649.265625,241.14539361000058L654.4185267857143,243.52078056335446L659.5714285714286,217.253068447113L664.7243303571428,261.91166377067566L669.8772321428571,264.69584918022156L675.0301339285714,112.2637031078338L680.1830357142857,338.50099658966064L685.3359375,272.8143618106842L690.4888392857143,277.69956386089325L695.6417410714286,291.1684272289276L700.7946428571429,263.20460772514343L705.9475446428571,236.6072640419006L711.1004464285714,218.4033737182617L716.2533482142858,317.63906931877136L721.40625,211.36284446716306L726.5591517857142,299.65513503551483L731.7120535714286,248.100533246994L736.8649553571428,297.12227857112885L742.0178571428571,312.5624666213989L747.1707589285714,308.5744950771332L752.3236607142858,294.9825773239136L757.4765625,272.53350949287415L762.6294642857143,286.2533560991287L767.7823660714286,306.5418074131012L772.9352678571429,254.88707160949704L778.0881696428571,242.28280401229856L783.2410714285713,265.79804933071136L788.3939732142857,223.59222745895383L793.5468750000001,259.5966718196869L798.6997767857143,266.7326853275299L803.8526785714286,307.78690552711487L809.0055803571429,283.2061914205551L814.1584821428571,324.70053112506866L819.3113839285714,257.90139412879944L824.4642857142857,289.3339333534241L829.6171874999999,279.46545219421387L834.7700892857143,297.23385548591614L839.9229910714287,288.6644027233124L845.0758928571429,287.62631392478943L850.2287946428571,251.81453204154965L855.3816964285714,294.4837222099304L860.5345982142857,269.32085490226746L865.6875,306.257670879364L870.8404017857142,309.0438959598541L875.9933035714286,294.6027145385742L881.1462053571429,312.19726181030273L886.2991071428572,303.84000396728516L891.4520089285714,254.13253164291382L896.6049107142858,246.6835842132568L901.7578125,306.15108942985535L906.9107142857142,278.44808852672577L912.0636160714286,296.59493720531464L917.2165178571428,281.1220107078552L922.3694196428571,319.19713592529297L927.5223214285714,300.89482283592224L932.6752232142858,281.67970514297485L937.828125,287.9973957538605L942.9810267857143,309.5833716392517L948.1339285714286,262.6913366317749L953.2868303571429,296.9179484844208L958.4397321428571,276.54241359233856L963.5926339285713,256.4894232749939L968.7455357142857,293.12478280067444L973.8984375000001,246.7232022285461L979.0513392857143,347.73602163791656L984.2042410714286,250.00935411453247L989.3571428571429,274.15938651561737L994.5100446428571,292.5762668848038L999.6629464285714,251.2256202697754L1004.8158482142857,-87.63438606262207L1009.9687499999999,327.3878321647644L1015.1216517857143,287.73261880874634L1020.2745535714287,267.9702470302582L1025.427455357143,198.32336640357968L1030.580357142857,294.32096338272095L1035.7332589285713,273.09376215934753L1040.8861607142858,245.25149321556088L1046.0390625,291.11995911598206L1051.1919642857142,323.43346333503723L1056.3448660714284,274.14146161079407L1061.497767857143,278.71122336387634L1066.650669642857,331.14023900032043L1071.8035714285716,305.83317732810974L1076.9564732142858,275.45165634155273L1082.109375,310.53136920928955L1087.2622767857142,280.7277319431305L1092.4151785714284,279.2835239171982L1097.568080357143,311.9507727622986L1102.720982142857,354.53438317775726L1107.8738839285716,311.1592940092087L1113.0267857142858,302.3234394788742L1118.1796875,273.19365417957306L1123.3325892857142,220.6066331863403L1128.4854910714287,219.91445875167844L1133.638392857143,309.15203309059143L1138.791294642857,307.7809247970581L1143.9441964285713,296.6405359506607L1149.0970982142856,288.928591966629L1154.25,320.0940034389496L1159.4029017857142,313.4699127674103L1164.5558035714287,275.5400708913803L1169.708705357143,278.93524146080017L1174.861607142857,275.5182394981384L1180.0145089285713,342.816041469574L1185.1674107142858,274.8407230377197L1190.3203125,272.35021567344666L1195.4732142857144,284.94921123981476L1200.6261160714287,-158.32772159576416L1205.779017857143,282.19211196899414L1210.931919642857,339.07060062885284L1216.0848214285713,301.52708625793457L1221.2377232142858,326.7483607530594L1226.390625,300.7481393814087L1231.5435267857142,309.8099479675293L1236.6964285714284,296.42339742183685L1241.849330357143,314.096005320549L1247.002232142857,343.17830777168274L1252.1551339285716,278.5607371330261L1257.3080357142858,285.2637526988983L1262.4609375,334.9095163345337L1267.6138392857142,322.8669879436493L1272.7667410714284,318.63715982437134L1277.919642857143,315.77861285209656L1283.072544642857,270.99585688114166L1288.2254464285716,293.55632877349854L1293.3783482142858,295.3325364589691L1298.53125,287.913423538208L1303.6841517857142,331.46821117401123L1308.8370535714287,-34.95341920852667L1313.989955357143,295.7441351413727L1319.142857142857,336.7006585597992L1324.2957589285713,306.5332338809967L1329.4486607142856,337.69147193431854L1334.6015625,297.17397904396057L1339.7544642857142,296.1733994483948L1344.9073660714287,299.44261169433594L1350.060267857143,285.48697566986084L1355.213169642857,297.7738151550293L1360.3660714285713,315.9763399362564L1365.5189732142858,322.9717025756836L1370.671875,281.04706144332886L1375.8247767857144,293.98237800598145L1380.9776785714287,320.23517286777496L1386.130580357143,307.1878991127014L1391.283482142857,298.249196767807" style="fill: none;" fill="none"></path></g></g></g></g></g></g><g transform="translate(53, 377)" clip-path="url(#clip_1)"><clipPath id="clip_1"><rect width="1442" height="23"></rect></clipPath><g><g><line x1="0" y1="0" x2="0" y2="5" style="visibility: inherit;" fill="rgb(0, 0, 0)" stroke="rgb(204, 204, 204)" stroke-width="1px"></line><line x1="103.05803571428571" y1="0" x2="103.05803571428571" y2="5" style="visibility: inherit;" fill="rgb(0, 0, 0)" stroke="rgb(204, 204, 204)" stroke-width="1px"></line><line x1="206.11607142857142" y1="0" x2="206.11607142857142" y2="5" style="visibility: inherit;" fill="rgb(0, 0, 0)" stroke="rgb(204, 204, 204)" stroke-width="1px"></line><line x1="309.1741071428571" y1="0" x2="309.1741071428571" y2="5" style="visibility: inherit;" fill="rgb(0, 0, 0)" stroke="rgb(204, 204, 204)" stroke-width="1px"></line><line x1="412.23214285714283" y1="0" x2="412.23214285714283" y2="5" style="visibility: inherit;" fill="rgb(0, 0, 0)" stroke="rgb(204, 204, 204)" stroke-width="1px"></line><line x1="515.2901785714286" y1="0" x2="515.2901785714286" y2="5" style="visibility: inherit;" fill="rgb(0, 0, 0)" stroke="rgb(204, 204, 204)" stroke-width="1px"></line><line x1="618.3482142857142" y1="0" x2="618.3482142857142" y2="5" style="visibility: inherit;" fill="rgb(0, 0, 0)" stroke="rgb(204, 204, 204)" stroke-width="1px"></line><line x1="721.40625" y1="0" x2="721.40625" y2="5" style="visibility: inherit;" fill="rgb(0, 0, 0)" stroke="rgb(204, 204, 204)" stroke-width="1px"></line><line x1="824.4642857142857" y1="0" x2="824.4642857142857" y2="5" style="visibility: inherit;" fill="rgb(0, 0, 0)" stroke="rgb(204, 204, 204)" stroke-width="1px"></line><line x1="927.5223214285714" y1="0" x2="927.5223214285714" y2="5" style="visibility: inherit;" fill="rgb(0, 0, 0)" stroke="rgb(204, 204, 204)" stroke-width="1px"></line><line x1="1030.580357142857" y1="0" x2="1030.580357142857" y2="5" style="visibility: inherit;" fill="rgb(0, 0, 0)" stroke="rgb(204, 204, 204)" stroke-width="1px"></line><line x1="1133.638392857143" y1="0" x2="1133.638392857143" y2="5" style="visibility: inherit;" fill="rgb(0, 0, 0)" stroke="rgb(204, 204, 204)" stroke-width="1px"></line><line x1="1236.6964285714284" y1="0" x2="1236.6964285714284" y2="5" style="visibility: inherit;" fill="rgb(0, 0, 0)" stroke="rgb(204, 204, 204)" stroke-width="1px"></line><line x1="1339.7544642857142" y1="0" x2="1339.7544642857142" y2="5" style="visibility: inherit;" fill="rgb(0, 0, 0)" stroke="rgb(204, 204, 204)" stroke-width="1px"></line><line x1="1442.8125" y1="0" x2="1442.8125" y2="5" style="visibility: inherit;" fill="rgb(0, 0, 0)" stroke="rgb(204, 204, 204)" stroke-width="1px"></line></g><g transform="translate(0, 8)"><text x="0" y="0" dx="0em" dy="0.95em" style="text-anchor: middle; visibility: hidden; font-family: &quot;Helvetica Neue&quot;, sans-serif; font-size: 12px; font-weight: 200;" fill="rgb(50, 49, 63)" stroke="none" stroke-width="1px">-1k</text><text x="103.05803571428571" y="0" dx="0em" dy="0.95em" style="text-anchor: middle; visibility: inherit; font-family: &quot;Helvetica Neue&quot;, sans-serif; font-size: 12px; font-weight: 200;" fill="rgb(50, 49, 63)" stroke="none" stroke-width="1px">0</text><text x="206.11607142857142" y="0" dx="0em" dy="0.95em" style="text-anchor: middle; visibility: inherit; font-family: &quot;Helvetica Neue&quot;, sans-serif; font-size: 12px; font-weight: 200;" fill="rgb(50, 49, 63)" stroke="none" stroke-width="1px">1k</text><text x="309.1741071428571" y="0" dx="0em" dy="0.95em" style="text-anchor: middle; visibility: inherit; font-family: &quot;Helvetica Neue&quot;, sans-serif; font-size: 12px; font-weight: 200;" fill="rgb(50, 49, 63)" stroke="none" stroke-width="1px">2k</text><text x="412.23214285714283" y="0" dx="0em" dy="0.95em" style="text-anchor: middle; visibility: inherit; font-family: &quot;Helvetica Neue&quot;, sans-serif; font-size: 12px; font-weight: 200;" fill="rgb(50, 49, 63)" stroke="none" stroke-width="1px">3k</text><text x="515.2901785714286" y="0" dx="0em" dy="0.95em" style="text-anchor: middle; visibility: inherit; font-family: &quot;Helvetica Neue&quot;, sans-serif; font-size: 12px; font-weight: 200;" fill="rgb(50, 49, 63)" stroke="none" stroke-width="1px">4k</text><text x="618.3482142857142" y="0" dx="0em" dy="0.95em" style="text-anchor: middle; visibility: inherit; font-family: &quot;Helvetica Neue&quot;, sans-serif; font-size: 12px; font-weight: 200;" fill="rgb(50, 49, 63)" stroke="none" stroke-width="1px">5k</text><text x="721.40625" y="0" dx="0em" dy="0.95em" style="text-anchor: middle; visibility: inherit; font-family: &quot;Helvetica Neue&quot;, sans-serif; font-size: 12px; font-weight: 200;" fill="rgb(50, 49, 63)" stroke="none" stroke-width="1px">6k</text><text x="824.4642857142857" y="0" dx="0em" dy="0.95em" style="text-anchor: middle; visibility: inherit; font-family: &quot;Helvetica Neue&quot;, sans-serif; font-size: 12px; font-weight: 200;" fill="rgb(50, 49, 63)" stroke="none" stroke-width="1px">7k</text><text x="927.5223214285714" y="0" dx="0em" dy="0.95em" style="text-anchor: middle; visibility: inherit; font-family: &quot;Helvetica Neue&quot;, sans-serif; font-size: 12px; font-weight: 200;" fill="rgb(50, 49, 63)" stroke="none" stroke-width="1px">8k</text><text x="1030.580357142857" y="0" dx="0em" dy="0.95em" style="text-anchor: middle; visibility: inherit; font-family: &quot;Helvetica Neue&quot;, sans-serif; font-size: 12px; font-weight: 200;" fill="rgb(50, 49, 63)" stroke="none" stroke-width="1px">9k</text><text x="1133.638392857143" y="0" dx="0em" dy="0.95em" style="text-anchor: middle; visibility: inherit; font-family: &quot;Helvetica Neue&quot;, sans-serif; font-size: 12px; font-weight: 200;" fill="rgb(50, 49, 63)" stroke="none" stroke-width="1px">10k</text><text x="1236.6964285714284" y="0" dx="0em" dy="0.95em" style="text-anchor: middle; visibility: inherit; font-family: &quot;Helvetica Neue&quot;, sans-serif; font-size: 12px; font-weight: 200;" fill="rgb(50, 49, 63)" stroke="none" stroke-width="1px">11k</text><text x="1339.7544642857142" y="0" dx="0em" dy="0.95em" style="text-anchor: middle; visibility: inherit; font-family: &quot;Helvetica Neue&quot;, sans-serif; font-size: 12px; font-weight: 200;" fill="rgb(50, 49, 63)" stroke="none" stroke-width="1px">12k</text><text x="1442.8125" y="0" dx="0em" dy="0.95em" style="text-anchor: middle; visibility: hidden; font-family: &quot;Helvetica Neue&quot;, sans-serif; font-size: 12px; font-weight: 200;" fill="rgb(50, 49, 63)" stroke="none" stroke-width="1px">13k</text></g><line x1="0" y1="0" x2="1442.8125" y2="0" fill="rgb(0, 0, 0)" stroke="rgb(204, 204, 204)" stroke-width="1px"></line></g></g></g></g></svg>